<?xml version="1.0" encoding="UTF-8" standalone="no"?>
<svg
   xmlns:dc="http://purl.org/dc/elements/1.1/"
   xmlns:cc="http://creativecommons.org/ns#"
   xmlns:rdf="http://www.w3.org/1999/02/22-rdf-syntax-ns#"
   xmlns:svg="http://www.w3.org/2000/svg"
   xmlns="http://www.w3.org/2000/svg"
   viewBox="0 0 21.333332 32"
   height="32"
   width="21.333332"
   xml:space="preserve"
   id="svg2"
   version="1.1"><metadata
     id="metadata8"><rdf:RDF><cc:Work
         rdf:about=""><dc:format>image/svg+xml</dc:format><dc:type
           rdf:resource="http://purl.org/dc/dcmitype/StillImage" /></cc:Work></rdf:RDF></metadata><defs
     id="defs6"><clipPath
       id="clipPath20"
       clipPathUnits="userSpaceOnUse"><path
         style="clip-rule:evenodd"
         id="path18"
         d="M 12,13 C 12,10.791 10.209,9 8,9 5.791,9 4,10.791 4,13 v 7 c 0,2.209 1.791,4 4,4 2.209,0 4,-1.791 4,-4 v -7 z m 4,2 V 13 C 16,8.582 12.418,5 8,5 3.582,5 0,8.582 0,13 v 2 H 2 V 13 C 2,9.691 4.691,7 8,7 c 3.309,0 6,2.691 6,6 v 2 h 2 z M 9,2 V 4 H 7 V 2 H 3 V 0 H 13 V 2 H 9 Z" /></clipPath><clipPath
       id="clipPath26"
       clipPathUnits="userSpaceOnUse"><path
         id="path24"
         d="M -213,-541 H 107 V 352 H -213 Z" /></clipPath></defs><g
     transform="matrix(1.3333333,0,0,-1.3333333,0,32)"
     id="g10"><g
       id="g12" /><g
       id="g14"><g
         clip-path="url(#clipPath20)"
         id="g16"><g
           clip-path="url(#clipPath26)"
           id="g22"><path
             id="path28"
             style="fill:#0f9edc;fill-opacity:1;fill-rule:nonzero;stroke:none"
             d="M -5,-5 H 21 V 29 H -5 Z" /></g></g></g></g></svg>